<svg width="23" height="23" viewBox="0 0 23 23" fill="none" xmlns="http://www.w3.org/2000/svg">
<path fill-rule="evenodd" clip-rule="evenodd" d="M21.2751 4.93203C22.4034 3.80377 22.4034 1.9745 21.2751 0.846238C20.1469 -0.282022 18.3176 -0.282023 17.1893 0.846238L11.0606 6.97493L4.93204 0.846323C3.80378 -0.281938 1.9745 -0.281938 0.846244 0.846322C-0.282017 1.97458 -0.282018 3.80385 0.846242 4.93211L6.97485 11.0607L0.846177 17.1894C-0.282084 18.3177 -0.282084 20.1469 0.846176 21.2752C1.97444 22.4035 3.80371 22.4035 4.93197 21.2752L11.0606 15.1465L17.1894 21.2753C18.3177 22.4035 20.1469 22.4035 21.2752 21.2753C22.4035 20.147 22.4035 18.3177 21.2752 17.1895L15.1464 11.0607L21.2751 4.93203Z" fill="#F4F5F0"/>
</svg>
