<svg width="146" height="146" viewBox="0 0 146 146" fill="none" xmlns="http://www.w3.org/2000/svg">
<path d="M72.676 0L78.4156 49.3898L106.45 8.3246L88.5798 54.7244L132.487 31.3913L95.1006 64.1715L144.822 63.9159L96.4843 75.5669L140.629 98.4473L92.4137 86.3L120.869 127.075L83.8215 93.912L90.0685 143.24L72.676 96.6591L55.2835 143.24L61.5305 93.912L24.4829 127.075L52.9383 86.3L4.72276 98.4473L48.8678 75.5669L0.529892 63.9159L50.2514 64.1715L12.8648 31.3913L56.7723 54.7244L38.9018 8.3246L66.9365 49.3898L72.676 0Z" fill="#A62B30"/>
<path d="M75.5231 29.7128L111.648 92.2831L113.813 96.0331H32.9039L35.069 92.2831L71.193 29.7128L73.358 25.9628L75.5231 29.7128Z" fill="#39373A" stroke="#F4F5F0" stroke-width="5"/>
<circle cx="73.6501" cy="72.3843" r="13.4183" fill="#F4F5F0"/>
<circle cx="73.6501" cy="72.3843" r="4.66722" fill="#39373A"/>
</svg>
